<svg xmlns="http://www.w3.org/2000/svg" xmlns:xlink="http://www.w3.org/1999/xlink" width="500" zoomAndPan="magnify"
    viewBox="0 0 375 374.999991" height="500" preserveAspectRatio="xMidYMid meet" version="1.0">
    <defs>
        <g />
        <clipPath id="af5a876acb">
            <path
                d="M 163.257812 95.253906 L 209.246094 95.253906 L 209.246094 233.964844 L 163.257812 233.964844 Z M 163.257812 95.253906 "
                clip-rule="nonzero" />
        </clipPath>
    </defs>
    <rect x="-37.5" width="450" fill="#ffffff" y="-37.499999" height="449.999989" fill-opacity="1" />
    <rect x="-37.5" width="450" fill="#ffffff" y="-37.499999" height="449.999989" fill-opacity="1" />
    <g fill="#231f20" fill-opacity="1">
        <g transform="translate(170.779388, 228.969887)">
            <g>
                <path
                    d="M 19.710938 0 L 12.5 -107.085938 C 12.378906 -109.128906 12.980469 -110.332031 13.820312 -110.332031 C 14.421875 -110.332031 15.265625 -109.730469 15.984375 -108.410156 C 17.789062 -105.40625 59.011719 -28.003906 59.011719 -28.003906 C 59.011719 -28.003906 94.707031 -104.5625 96.75 -108.410156 C 97.472656 -109.730469 98.191406 -110.332031 98.792969 -110.332031 C 99.636719 -110.332031 100.238281 -109.128906 100.238281 -107.085938 L 100.238281 0 L 110.332031 0 L 110.332031 -120.1875 L 99.273438 -120.1875 L 64.539062 -46.03125 C 63.699219 -44.347656 62.859375 -43.507812 61.898438 -43.507812 C 60.933594 -43.507812 59.972656 -44.347656 59.132812 -45.910156 L 19.46875 -120.1875 L 9.613281 -120.1875 L 9.613281 0 Z M 19.710938 0 " />
            </g>
        </g>
    </g>
    <g clip-path="url(#af5a876acb)">
        <path fill="#ffffff"
            d="M 163.257812 95.253906 L 209.246094 95.253906 L 209.246094 233.964844 L 163.257812 233.964844 Z M 163.257812 95.253906 "
            fill-opacity="1" fill-rule="nonzero" />
    </g>
    <g fill="#231f20" fill-opacity="1">
        <g transform="translate(82.524344, 228.969887)">
            <g>
                <path
                    d="M 6.007812 -60.09375 C 6.007812 -22.59375 32.929688 2.402344 65.984375 2.402344 C 86.535156 2.402344 106.246094 -3.964844 112.136719 -12.859375 L 112.136719 -26.320312 C 102.878906 -13.101562 84.851562 0 65.984375 0 C 38.21875 0 15.625 -24.039062 15.625 -60.09375 C 15.625 -96.148438 38.21875 -120.1875 65.984375 -120.1875 C 86.535156 -120.1875 104.082031 -106.003906 105.886719 -92.542969 C 105.886719 -92.542969 111.292969 -92.304688 111.292969 -99.15625 C 111.292969 -114.660156 87.738281 -122.589844 65.984375 -122.589844 C 32.929688 -122.589844 6.007812 -97.59375 6.007812 -60.09375 Z M 6.007812 -60.09375 " />
            </g>
        </g>
    </g>
    <g fill="#231f20" fill-opacity="1">
        <g transform="translate(101.082926, 266.49051)">
            <g>
                <path
                    d="M 0.546875 -4.109375 C 0.546875 -4.367188 0.5625 -4.628906 0.59375 -4.890625 C 0.632812 -5.160156 0.695312 -5.441406 0.78125 -5.734375 C 0.863281 -6.035156 0.96875 -6.316406 1.09375 -6.578125 C 1.21875 -6.847656 1.378906 -7.101562 1.578125 -7.34375 C 1.785156 -7.59375 2.019531 -7.800781 2.28125 -7.96875 C 2.539062 -8.144531 2.847656 -8.285156 3.203125 -8.390625 C 3.566406 -8.492188 3.960938 -8.546875 4.390625 -8.546875 C 6.222656 -8.546875 7.304688 -7.628906 7.640625 -5.796875 L 6.53125 -5.796875 C 6.414062 -6.398438 6.175781 -6.847656 5.8125 -7.140625 C 5.445312 -7.441406 4.929688 -7.59375 4.265625 -7.59375 C 3.453125 -7.59375 2.804688 -7.28125 2.328125 -6.65625 C 1.859375 -6.039062 1.625 -5.195312 1.625 -4.125 C 1.625 -3.0625 1.867188 -2.21875 2.359375 -1.59375 C 2.859375 -0.976562 3.523438 -0.671875 4.359375 -0.671875 C 5.046875 -0.671875 5.570312 -0.863281 5.9375 -1.25 C 6.3125 -1.644531 6.566406 -2.25 6.703125 -3.0625 L 7.8125 -3.0625 C 7.550781 -0.84375 6.394531 0.265625 4.34375 0.265625 C 3.863281 0.265625 3.421875 0.195312 3.015625 0.0625 C 2.617188 -0.0703125 2.285156 -0.253906 2.015625 -0.484375 C 1.742188 -0.722656 1.507812 -0.984375 1.3125 -1.265625 C 1.113281 -1.554688 0.960938 -1.867188 0.859375 -2.203125 C 0.753906 -2.546875 0.675781 -2.867188 0.625 -3.171875 C 0.570312 -3.484375 0.546875 -3.796875 0.546875 -4.109375 Z M 0.546875 -4.109375 " />
            </g>
        </g>
    </g>
    <g fill="#231f20" fill-opacity="1">
        <g transform="translate(118.619379, 266.49051)">
            <g>
                <path
                    d="M 5.46875 -2.53125 L 2.234375 -2.53125 L 1.34375 0 L 0.203125 0 L 3.203125 -8.40625 L 4.578125 -8.40625 L 7.53125 0 L 6.328125 0 Z M 5.15625 -3.421875 L 3.875 -7.265625 L 2.484375 -3.421875 Z M 5.15625 -3.421875 " />
            </g>
        </g>
    </g>
    <g fill="#231f20" fill-opacity="1">
        <g transform="translate(135.521994, 266.49051)">
            <g>
                <path
                    d="M 6.1875 -4.15625 C 6.46875 -4.03125 6.691406 -3.875 6.859375 -3.6875 C 7.035156 -3.507812 7.148438 -3.320312 7.203125 -3.125 C 7.265625 -2.925781 7.300781 -2.71875 7.3125 -2.5 C 7.332031 -2.28125 7.335938 -2.0625 7.328125 -1.84375 C 7.328125 -1.632812 7.328125 -1.429688 7.328125 -1.234375 C 7.335938 -1.046875 7.378906 -0.863281 7.453125 -0.6875 C 7.535156 -0.507812 7.660156 -0.367188 7.828125 -0.265625 L 7.828125 0 L 6.53125 0 C 6.375 -0.363281 6.296875 -0.820312 6.296875 -1.375 L 6.296875 -2.125 C 6.296875 -2.644531 6.179688 -3.023438 5.953125 -3.265625 C 5.734375 -3.503906 5.382812 -3.625 4.90625 -3.625 L 2.140625 -3.625 L 2.140625 0 L 1.078125 0 L 1.078125 -8.40625 L 4.953125 -8.40625 C 5.773438 -8.40625 6.40625 -8.210938 6.84375 -7.828125 C 7.28125 -7.441406 7.5 -6.882812 7.5 -6.15625 C 7.5 -5.675781 7.394531 -5.28125 7.1875 -4.96875 C 6.988281 -4.65625 6.65625 -4.382812 6.1875 -4.15625 Z M 6.390625 -6.015625 C 6.390625 -6.296875 6.347656 -6.535156 6.265625 -6.734375 C 6.179688 -6.929688 6.054688 -7.078125 5.890625 -7.171875 C 5.734375 -7.273438 5.5625 -7.347656 5.375 -7.390625 C 5.195312 -7.429688 4.984375 -7.453125 4.734375 -7.453125 L 2.140625 -7.453125 L 2.140625 -4.5625 L 4.734375 -4.5625 C 5.304688 -4.5625 5.722656 -4.675781 5.984375 -4.90625 C 6.253906 -5.144531 6.390625 -5.515625 6.390625 -6.015625 Z M 6.390625 -6.015625 " />
            </g>
        </g>
    </g>
    <g fill="#231f20" fill-opacity="1">
        <g transform="translate(153.058449, 266.49051)">
            <g>
                <path
                    d="M 2.109375 -3.828125 L 2.109375 -0.953125 L 7.078125 -0.953125 L 7.078125 0 L 1.03125 0 L 1.03125 -8.40625 L 6.859375 -8.40625 L 6.859375 -7.453125 L 2.109375 -7.453125 L 2.109375 -4.765625 L 6.6875 -4.765625 L 6.6875 -3.828125 Z M 2.109375 -3.828125 " />
            </g>
        </g>
    </g>
    <g fill="#231f20" fill-opacity="1">
        <g transform="translate(169.961062, 266.49051)">
            <g />
        </g>
    </g>
    <g fill="#231f20" fill-opacity="1">
        <g transform="translate(182.381917, 266.49051)">
            <g>
                <path
                    d="M 5.390625 0 L 4.265625 0 L 1.875 -7.046875 L 1.875 0 L 0.859375 0 L 0.859375 -8.40625 L 2.34375 -8.40625 L 4.84375 -1.078125 L 7.296875 -8.40625 L 8.78125 -8.40625 L 8.78125 0 L 7.765625 0 L 7.765625 -7.046875 Z M 5.390625 0 " />
            </g>
        </g>
    </g>
    <g fill="#231f20" fill-opacity="1">
        <g transform="translate(201.192475, 266.49051)">
            <g>
                <path d="M 2.234375 -8.40625 L 2.234375 0 L 1.15625 0 L 1.15625 -8.40625 Z M 2.234375 -8.40625 " />
            </g>
        </g>
    </g>
    <g fill="#231f20" fill-opacity="1">
        <g transform="translate(213.61333, 266.49051)">
            <g>
                <path
                    d="M 7.453125 -8.40625 L 7.453125 0 L 6.234375 0 L 1.890625 -6.8125 L 1.890625 0 L 0.875 0 L 0.875 -8.40625 L 2.046875 -8.40625 L 6.4375 -1.53125 L 6.4375 -8.40625 Z M 7.453125 -8.40625 " />
            </g>
        </g>
    </g>
    <g fill="#231f20" fill-opacity="1">
        <g transform="translate(231.149789, 266.49051)">
            <g>
                <path
                    d="M 1.03125 0 L 1.03125 -8.40625 L 4.265625 -8.40625 C 5.328125 -8.40625 6.160156 -8.03125 6.765625 -7.28125 C 7.378906 -6.53125 7.6875 -5.507812 7.6875 -4.21875 C 7.6875 -2.90625 7.378906 -1.875 6.765625 -1.125 C 6.160156 -0.375 5.328125 0 4.265625 0 Z M 2.09375 -0.953125 L 4.078125 -0.953125 C 4.910156 -0.953125 5.539062 -1.226562 5.96875 -1.78125 C 6.40625 -2.332031 6.625 -3.140625 6.625 -4.203125 C 6.625 -5.265625 6.40625 -6.070312 5.96875 -6.625 C 5.539062 -7.175781 4.910156 -7.453125 4.078125 -7.453125 L 2.09375 -7.453125 Z M 2.09375 -0.953125 " />
            </g>
        </g>
    </g>
    <g fill="#231f20" fill-opacity="1">
        <g transform="translate(248.686247, 266.49051)">
            <g>
                <path
                    d="M 2.109375 -3.828125 L 2.109375 -0.953125 L 7.078125 -0.953125 L 7.078125 0 L 1.03125 0 L 1.03125 -8.40625 L 6.859375 -8.40625 L 6.859375 -7.453125 L 2.109375 -7.453125 L 2.109375 -4.765625 L 6.6875 -4.765625 L 6.6875 -3.828125 Z M 2.109375 -3.828125 " />
            </g>
        </g>
    </g>
    <g fill="#231f20" fill-opacity="1">
        <g transform="translate(265.588868, 266.49051)">
            <g>
                <path
                    d="M 6.1875 -4.15625 C 6.46875 -4.03125 6.691406 -3.875 6.859375 -3.6875 C 7.035156 -3.507812 7.148438 -3.320312 7.203125 -3.125 C 7.265625 -2.925781 7.300781 -2.71875 7.3125 -2.5 C 7.332031 -2.28125 7.335938 -2.0625 7.328125 -1.84375 C 7.328125 -1.632812 7.328125 -1.429688 7.328125 -1.234375 C 7.335938 -1.046875 7.378906 -0.863281 7.453125 -0.6875 C 7.535156 -0.507812 7.660156 -0.367188 7.828125 -0.265625 L 7.828125 0 L 6.53125 0 C 6.375 -0.363281 6.296875 -0.820312 6.296875 -1.375 L 6.296875 -2.125 C 6.296875 -2.644531 6.179688 -3.023438 5.953125 -3.265625 C 5.734375 -3.503906 5.382812 -3.625 4.90625 -3.625 L 2.140625 -3.625 L 2.140625 0 L 1.078125 0 L 1.078125 -8.40625 L 4.953125 -8.40625 C 5.773438 -8.40625 6.40625 -8.210938 6.84375 -7.828125 C 7.28125 -7.441406 7.5 -6.882812 7.5 -6.15625 C 7.5 -5.675781 7.394531 -5.28125 7.1875 -4.96875 C 6.988281 -4.65625 6.65625 -4.382812 6.1875 -4.15625 Z M 6.390625 -6.015625 C 6.390625 -6.296875 6.347656 -6.535156 6.265625 -6.734375 C 6.179688 -6.929688 6.054688 -7.078125 5.890625 -7.171875 C 5.734375 -7.273438 5.5625 -7.347656 5.375 -7.390625 C 5.195312 -7.429688 4.984375 -7.453125 4.734375 -7.453125 L 2.140625 -7.453125 L 2.140625 -4.5625 L 4.734375 -4.5625 C 5.304688 -4.5625 5.722656 -4.675781 5.984375 -4.90625 C 6.253906 -5.144531 6.390625 -5.515625 6.390625 -6.015625 Z M 6.390625 -6.015625 " />
            </g>
        </g>
    </g>
</svg>