<svg width="235" height="34" viewBox="0 0 235 34" fill="none" xmlns="http://www.w3.org/2000/svg">
<mask id="mask0_1_731" style="mask-type:luminance" maskUnits="userSpaceOnUse" x="25" y="0" width="16" height="34">
<path d="M40.884 0.0307617H25.9424V33.8051H40.884V0.0307617Z" fill="white"/>
</mask>
<g mask="url(#mask0_1_731)">
<path d="M22.0428 27.9721L20.5463 5.7494C20.5213 5.32543 20.6461 5.07576 20.8204 5.07576C20.9452 5.07576 21.1203 5.20059 21.2694 5.4746C21.6441 6.09797 30.1986 22.1608 30.1986 22.1608C30.1986 22.1608 37.6063 6.27307 38.0302 5.4746C38.1801 5.20059 38.3294 5.07576 38.4542 5.07576C38.6293 5.07576 38.7541 5.32543 38.7541 5.7494V27.9721H40.8487V3.03052H38.5538L31.3457 18.4196C31.1714 18.769 30.9971 18.9433 30.7977 18.9433C30.5975 18.9433 30.398 18.769 30.2238 18.4448L21.9926 3.03052H19.9473V27.9721H22.0428Z" fill="white"/>
</g>
<path d="M0.883789 15.9571C0.883789 23.7392 6.47068 28.9265 13.3303 28.9265C17.5951 28.9265 21.6855 27.6052 22.9079 25.7593V22.9658C20.9867 25.709 17.2457 28.4279 13.3303 28.4279C7.56829 28.4279 2.87957 23.4393 2.87957 15.9571C2.87957 8.47498 7.56829 3.48633 13.3303 3.48633C17.5951 3.48633 21.2365 6.42975 21.6109 9.2232C21.6109 9.2232 22.7328 9.27265 22.7328 7.8508C22.7328 4.63338 17.8447 2.98779 13.3303 2.98779C6.47068 2.98779 0.883789 8.17505 0.883789 15.9571Z" fill="white"/>
<path d="M71.8838 16.9474C71.8838 16.6037 71.9046 16.2547 71.9463 15.9058C71.9984 15.5464 72.0817 15.1714 72.1963 14.7808C72.3057 14.3797 72.4463 14.0047 72.613 13.6558C72.7796 13.2964 72.9932 12.9578 73.2588 12.6349C73.5348 12.3016 73.8473 12.0256 74.1963 11.8016C74.54 11.5672 74.9515 11.3797 75.4255 11.2391C75.9098 11.1037 76.4359 11.0308 77.0088 11.0308C79.4515 11.0308 80.8942 12.2547 81.3421 14.6974H79.863C79.7067 13.8953 79.389 13.2964 78.9046 12.9058C78.415 12.5047 77.7275 12.3016 76.8421 12.3016C75.7588 12.3016 74.8942 12.7183 74.2588 13.5516C73.6338 14.3745 73.3213 15.4995 73.3213 16.9266C73.3213 18.3433 73.6442 19.4683 74.3005 20.3016C74.9671 21.1245 75.8525 21.5308 76.9671 21.5308C77.8838 21.5308 78.5817 21.2756 79.0713 20.7599C79.5713 20.2339 79.9098 19.4266 80.0921 18.3433H81.5713C81.2223 21.3016 79.6807 22.7808 76.9463 22.7808C76.3057 22.7808 75.7171 22.687 75.1755 22.5099C74.6442 22.3328 74.2015 22.0881 73.8421 21.7808C73.4775 21.4631 73.165 21.1141 72.9046 20.7391C72.639 20.3537 72.4359 19.937 72.3005 19.4891C72.1598 19.0308 72.0557 18.6037 71.988 18.1974C71.915 17.7808 71.8838 17.3641 71.8838 16.9474Z" fill="white"/>
<path d="M96.5921 19.0516H92.2796L91.0921 22.4266H89.5713L93.5713 11.2183H95.4046L99.3421 22.4266H97.738L96.5921 19.0516ZM96.1755 17.8641L94.4671 12.7391L92.613 17.8641H96.1755Z" fill="white"/>
<path d="M114.154 16.8849C114.529 17.0516 114.826 17.2599 115.05 17.5099C115.285 17.7495 115.436 17.9995 115.508 18.2599C115.592 18.5256 115.639 18.8016 115.654 19.0933C115.68 19.3849 115.686 19.6766 115.675 19.9683C115.675 20.2495 115.675 20.5203 115.675 20.7808C115.686 21.0308 115.743 21.2756 115.842 21.5099C115.951 21.7495 116.118 21.937 116.342 22.0724V22.4266H114.613C114.404 21.9422 114.3 21.3328 114.3 20.5933V19.5933C114.3 18.9006 114.144 18.3953 113.842 18.0724C113.55 17.7547 113.081 17.5933 112.446 17.5933H108.758V22.4266H107.342V11.2183H112.508C113.602 11.2183 114.446 11.4787 115.029 11.9891C115.613 12.5047 115.904 13.2495 115.904 14.2183C115.904 14.8589 115.764 15.3849 115.488 15.8016C115.222 16.2183 114.779 16.5828 114.154 16.8849ZM114.425 14.4058C114.425 14.0308 114.368 13.7131 114.258 13.4474C114.144 13.187 113.977 12.9891 113.758 12.8641C113.55 12.7287 113.321 12.6297 113.071 12.5724C112.831 12.5203 112.55 12.4891 112.217 12.4891H108.758V16.3433H112.217C112.977 16.3433 113.535 16.1922 113.883 15.8849C114.243 15.5672 114.425 15.0724 114.425 14.4058Z" fill="white"/>
<path d="M125.779 17.3224V21.1558H132.404V22.4266H124.342V11.2183H132.113V12.4891H125.779V16.0724H131.883V17.3224H125.779Z" fill="white"/>
<path d="M153.446 22.4266H151.946L148.758 13.0308V22.4266H147.404V11.2183H149.383L152.717 20.9891L155.988 11.2183H157.967V22.4266H156.613V13.0308L153.446 22.4266Z" fill="white"/>
<path d="M167.404 11.2183V22.4266H165.967V11.2183H167.404Z" fill="white"/>
<path d="M184.175 11.2183V22.4266H182.55L176.758 13.3433V22.4266H175.404V11.2183H176.967L182.821 20.3849V11.2183H184.175Z" fill="white"/>
<path d="M192.176 22.4266V11.2183H196.488C197.905 11.2183 199.014 11.7183 199.822 12.7183C200.639 13.7183 201.051 15.0828 201.051 16.8016C201.051 18.5516 200.639 19.9266 199.822 20.9266C199.014 21.9266 197.905 22.4266 196.488 22.4266H192.176ZM193.592 21.1558H196.238C197.348 21.1558 198.186 20.7912 198.759 20.0516C199.342 19.3172 199.634 18.2391 199.634 16.8224C199.634 15.4058 199.342 14.3328 198.759 13.5933C198.186 12.8589 197.348 12.4891 196.238 12.4891H193.592V21.1558Z" fill="white"/>
<path d="M210.488 17.3224V21.1558H217.113V22.4266H209.051V11.2183H216.822V12.4891H210.488V16.0724H216.592V17.3224H210.488Z" fill="white"/>
<path d="M231.926 16.8849C232.301 17.0516 232.598 17.2599 232.822 17.5099C233.056 17.7495 233.207 17.9995 233.28 18.2599C233.363 18.5256 233.41 18.8016 233.426 19.0933C233.452 19.3849 233.457 19.6766 233.447 19.9683C233.447 20.2495 233.447 20.5203 233.447 20.7808C233.457 21.0308 233.514 21.2756 233.613 21.5099C233.723 21.7495 233.889 21.937 234.113 22.0724V22.4266H232.384C232.176 21.9422 232.072 21.3328 232.072 20.5933V19.5933C232.072 18.9006 231.915 18.3953 231.613 18.0724C231.322 17.7547 230.853 17.5933 230.217 17.5933H226.53V22.4266H225.113V11.2183H230.28C231.374 11.2183 232.217 11.4787 232.801 11.9891C233.384 12.5047 233.676 13.2495 233.676 14.2183C233.676 14.8589 233.535 15.3849 233.259 15.8016C232.993 16.2183 232.551 16.5828 231.926 16.8849ZM232.197 14.4058C232.197 14.0308 232.139 13.7131 232.03 13.4474C231.915 13.187 231.749 12.9891 231.53 12.8641C231.322 12.7287 231.092 12.6297 230.842 12.5724C230.603 12.5203 230.322 12.4891 229.988 12.4891H226.53V16.3433H229.988C230.749 16.3433 231.306 16.1922 231.655 15.8849C232.014 15.5672 232.197 15.0724 232.197 14.4058Z" fill="white"/>
</svg>
